<svg width="22" height="22" viewBox="0 0 22 22" fill="none" xmlns="http://www.w3.org/2000/svg">
<path fill-rule="evenodd" clip-rule="evenodd" d="M17.3058 0.0824434C15.9391 0.369173 14.827 1.35454 14.3727 2.68115C14.0951 3.49176 14.1245 4.36489 14.4948 6.30517C14.631 7.01903 14.6869 7.16708 14.8682 7.29501C15.1306 7.48026 15.4376 7.46422 15.6789 7.2527C15.9246 7.03726 15.9381 6.89317 15.7878 6.08677C15.5565 4.84543 15.5106 4.49634 15.5073 3.94968C15.5045 3.49503 15.5193 3.36813 15.6029 3.12634C15.9824 2.02999 16.9477 1.32125 18.0664 1.3176C18.8277 1.3151 19.3498 1.52822 19.8751 2.05584C20.2321 2.41446 20.3705 2.64108 20.5462 3.15416C20.6474 3.44996 20.6667 3.58658 20.6839 4.12925C20.7343 5.72694 20.309 7.57554 19.5446 9.08203C19.2672 9.62866 19.2284 9.8754 19.3863 10.0882C19.6653 10.4644 20.1178 10.5037 20.4212 10.1781C20.5517 10.0381 20.9529 9.22161 21.1574 8.67976C21.7456 7.12163 21.9991 5.82128 22 4.35818C22.0005 3.50922 21.9324 3.08424 21.7023 2.50137C21.3868 1.70177 20.7102 0.894771 20.0386 0.51688C19.1909 0.0399156 18.2339 -0.112221 17.3058 0.0824434ZM10.5286 3.51756C10.2792 3.53519 10.0369 3.57071 9.99033 3.59647C9.94373 3.62222 7.73215 5.8166 5.07571 8.47284C1.90896 11.6393 0.216136 13.3619 0.159635 13.4754C-0.0586592 13.914 -0.0526732 14.4502 0.175138 14.8681C0.252138 15.0094 1.32595 16.1081 3.65342 18.4271C6.64137 21.4041 7.04639 21.7925 7.25224 21.878C7.69796 22.0632 8.17623 22.0368 8.59215 21.8038C8.88417 21.6403 18.3408 12.2006 18.4659 11.9478C18.5591 11.7593 18.5616 11.7173 18.5602 10.3138C18.5587 8.79045 18.5225 8.22967 18.2813 5.99221C18.1359 4.64289 18.0975 4.41868 17.9796 4.22815C17.8567 4.02957 17.6471 3.94662 17.0548 3.86204C16.1812 3.73729 16.1383 3.73549 16.1155 3.82252C16.0933 3.90728 16.1392 4.41649 16.2151 4.9285C16.2622 5.24563 16.2751 5.27229 16.4914 5.4977C16.7647 5.7825 16.8731 5.95927 16.9641 6.26879C17.1158 6.78442 17.0081 7.40006 16.6929 7.81889C16.324 8.30918 15.8474 8.54938 15.2416 8.55029C13.9508 8.55227 13.0787 7.19963 13.6226 6.03908L13.7573 5.75154L13.6667 5.18384C13.615 4.86022 13.5739 4.39091 13.5711 4.09218L13.5661 3.56817L13.2647 3.54482C12.714 3.50217 10.989 3.48497 10.5286 3.51756ZM12.5786 10.5279L12.2156 10.8943L12.3678 11.0663C12.6736 11.4118 13.1138 12.1508 13.1139 12.3188C13.1139 12.3543 12.2986 12.8533 11.9919 13.0057C11.9788 13.0122 11.9128 12.8881 11.8454 12.7299C11.578 12.1032 11.0672 11.4676 10.6671 11.2638C10.329 11.0916 9.95338 11.1777 9.82018 11.4579C9.69133 11.7291 9.74658 11.9674 10.1701 12.9669C10.6756 14.1602 10.735 14.7003 10.4288 15.3189C10.2522 15.6757 9.89571 16.0567 9.55796 16.2497C9.31197 16.3902 8.86246 16.504 8.54822 16.5052C8.19811 16.5065 7.65782 16.3262 7.18278 16.0494L7.04381 15.9684L6.62242 16.3874L6.20099 16.8064L5.80346 16.4095L5.40589 16.0125L5.79959 15.6177L6.19328 15.223L6.00005 14.9937C5.89377 14.8676 5.7483 14.6773 5.67676 14.5709C5.46248 14.252 5.11038 13.5179 5.15194 13.4767C5.16107 13.4676 5.43013 13.3047 5.74989 13.1145C6.24711 12.8188 6.33561 12.7793 6.36136 12.842C6.3779 12.8824 6.43944 13.0383 6.49814 13.1886C6.83025 14.0393 7.54064 14.8138 8.09691 14.9316C8.39039 14.9938 8.72884 14.7765 8.81062 14.4733C8.87831 14.2222 8.7961 13.9109 8.45917 13.1425C8.07637 12.2694 7.9737 11.8803 7.99713 11.391C8.01147 11.0919 8.04006 10.9679 8.14777 10.7381C8.40163 10.1964 8.98115 9.76218 9.57841 9.66611C10.0641 9.58803 10.7043 9.73698 11.1846 10.0397L11.3552 10.1473L11.7501 9.75878L12.145 9.37031L12.5433 9.76596L12.9417 10.1616L12.5786 10.5279Z" fill="#98A2B3"/>
</svg>
