<svg width="22" height="22" viewBox="0 0 22 22" fill="none" xmlns="http://www.w3.org/2000/svg">
<path fill-rule="evenodd" clip-rule="evenodd" d="M20.7628 0.665085C20.5429 0.78025 18.1568 2.02605 15.4603 3.43354C12.7639 4.84102 8.25556 7.19437 5.44174 8.66324C2.62796 10.1322 0.278974 11.377 0.22182 11.4296C0.0931061 11.5481 0 11.7597 0 11.9339C0 12.1047 0.14454 12.3865 0.276437 12.4729C0.426783 12.5714 6.1539 14.5205 6.21923 14.4954C6.24955 14.4838 7.07365 13.7906 8.05052 12.9549C9.02742 12.1192 11.7038 9.83287 13.9982 7.87406C16.2925 5.9153 18.2171 4.27185 18.2751 4.22194L18.3806 4.13119L18.2751 4.26171C18.2171 4.3335 16.1086 6.8742 13.5896 9.90767C11.0706 12.9412 9.00467 15.4361 8.99869 15.452C8.99048 15.4738 18.2255 18.652 18.6944 18.7886C18.912 18.852 19.2939 18.6624 19.4132 18.4318C19.4994 18.2651 22.034 1.17441 21.9997 0.991323C21.965 0.806774 21.785 0.590457 21.6027 0.514324C21.3572 0.411797 21.1888 0.442018 20.7628 0.665085ZM8.04196 18.8354C8.04196 21.2433 8.03727 21.1937 8.28326 21.3871C8.56675 21.61 8.95005 21.5893 9.18968 21.3381C9.36316 21.1563 11.7517 17.9059 11.7287 17.8829C11.7115 17.8658 8.0915 16.6193 8.05877 16.6193C8.04953 16.6193 8.04196 17.6165 8.04196 18.8354Z" fill="#98A2B3"/>
</svg>
