<svg width="22" height="22" viewBox="0 0 22 22" fill="none" xmlns="http://www.w3.org/2000/svg">
<path fill-rule="evenodd" clip-rule="evenodd" d="M1.39628 0.0573091C0.761244 0.21484 0.23152 0.742367 0.0597294 1.38832C0.0107876 1.5724 0.000732806 3.04317 0.000303115 10.0861C-0.000255484 19.3617 -0.0146501 18.8225 0.245614 19.2673C0.401807 19.5341 0.722442 19.8439 0.971706 19.9689C1.08708 20.0267 2.47696 20.5073 4.06037 21.037L6.9393 22L7.32603 21.9999C7.79959 21.9998 8.06458 21.916 8.42071 21.6535C8.71058 21.4399 8.9396 21.124 9.06636 20.7629C9.13705 20.5616 9.15222 20.4079 9.15222 19.8935V19.2687L10.6669 19.2679C12.3975 19.2671 12.5694 19.2459 13.1483 18.9622C13.8436 18.6214 14.4088 17.9129 14.5854 17.1608C14.6836 16.7421 14.684 12.7171 14.5857 12.4818C14.2981 11.7926 13.3037 11.7476 12.9402 12.4073C12.8776 12.5209 12.8665 12.7899 12.8476 14.6443L12.8261 16.7521L12.7187 16.9438C12.6596 17.0492 12.5274 17.1944 12.425 17.2664L12.2387 17.3974L10.696 17.4097L9.1532 17.422L9.14199 10.3118L9.13073 3.20152L8.99473 2.91416C8.77069 2.44071 8.46935 2.16079 7.95372 1.94712L7.71275 1.84728L9.97572 1.85765L12.2387 1.86797L12.425 1.99892C12.5274 2.07097 12.6596 2.21616 12.7187 2.32155L12.8261 2.51324L12.8476 4.17661L12.869 5.83993L12.998 6.02306C13.1914 6.29777 13.4451 6.41663 13.7981 6.39779C14.1255 6.38037 14.3421 6.2588 14.5234 5.99084L14.6308 5.83202L14.6429 4.1209C14.6566 2.1968 14.6437 2.07717 14.3614 1.50232C14.1295 1.0299 13.636 0.542206 13.1483 0.303199C12.4952 -0.0168966 12.8006 -0.00214154 6.89633 0.00108479C2.84581 0.00332172 1.56094 0.0164852 1.39628 0.0573091ZM17.0367 4.67983C16.8201 4.77834 16.6041 5.02148 16.5455 5.23295C16.5182 5.33125 16.5003 5.96043 16.5002 6.82577L16.4999 8.25611H14.5747H12.6496L12.4234 8.36895C12.0366 8.56193 11.848 8.96883 11.9493 9.3917C12.0187 9.68138 12.3147 9.98362 12.5992 10.0553C12.7373 10.0901 13.3753 10.1059 14.6498 10.1059H16.4999V11.5312C16.4999 12.5344 16.5156 13.009 16.5528 13.1336C16.657 13.4829 17.0588 13.764 17.4502 13.7614C17.792 13.7592 17.9091 13.6593 19.8849 11.6847C21.8653 9.70547 22 9.5479 22 9.20982C22 8.80399 22.024 8.83277 19.941 6.73849C18.6503 5.44068 17.9228 4.74027 17.8077 4.68439C17.5883 4.57792 17.265 4.57598 17.0367 4.67983Z" fill="#98A2B3"/>
</svg>
