<svg width="18" height="18" viewBox="0 0 18 18" fill="none" xmlns="http://www.w3.org/2000/svg">
<path fill-rule="evenodd" clip-rule="evenodd" d="M8.87668 0.00982715C8.63197 0.0528307 8.45318 0.19047 8.32887 0.43148C8.27791 0.530377 8.26232 0.664495 8.25022 1.10946L8.23513 1.66418H7.20171H6.16824L6.16803 1.16229C6.16782 0.573803 6.13817 0.441165 5.96363 0.247491C5.80573 0.072272 5.66377 0.008841 5.42958 0.008841C5.19538 0.008841 5.05342 0.072272 4.89552 0.247491C4.72098 0.441165 4.69133 0.573803 4.69112 1.16229L4.69091 1.66418L4.33037 1.66527C3.65389 1.66731 3.26965 1.75018 2.90059 1.97358C2.4562 2.24266 2.14163 2.64583 1.96041 3.17863C1.89696 3.36519 1.89453 3.61068 1.89453 9.83519C1.89453 16.0597 1.89696 16.3052 1.96041 16.4918C2.14163 17.0246 2.4562 17.4277 2.90059 17.6968C3.16697 17.858 3.37967 17.9268 3.75878 17.9739C3.93765 17.9962 5.9242 18.0047 9.21084 17.9975C13.941 17.987 14.398 17.9809 14.5747 17.9266C15.2627 17.7151 15.7804 17.2163 16.0091 16.5446L16.1051 16.2628V9.87041C16.1051 4.61522 16.0966 3.44356 16.0575 3.28429C15.8787 2.55668 15.2861 1.94421 14.5734 1.75029C14.4679 1.72155 14.142 1.68806 13.8492 1.67583L13.3168 1.65358L13.3019 1.10418C13.2899 0.664142 13.2742 0.530201 13.2233 0.43148C13.0771 0.147995 12.8493 0.00380455 12.5475 0.00380455C12.3071 0.00380455 12.0815 0.127356 11.9449 0.33385C11.8514 0.475188 11.8487 0.493819 11.8378 1.07153L11.8267 1.66418H10.7738H9.72087V1.10619C9.72087 0.59004 9.71475 0.536576 9.63902 0.392984C9.49421 0.118375 9.17419 -0.0425096 8.87668 0.00982715ZM9.59776 6.00038C9.87638 6.07762 10.1426 6.43697 10.1426 6.73584C10.1426 7.03472 9.87638 7.39407 9.59776 7.4713C9.40444 7.52487 5.62634 7.52582 5.41424 7.47236C5.08268 7.38875 4.86678 7.09833 4.86678 6.73584C4.86678 6.38364 5.06292 6.10801 5.38483 6.00774C5.56679 5.95107 9.39572 5.94438 9.59776 6.00038ZM13.4878 9.07187C13.7051 9.18672 13.8438 9.39572 13.8639 9.63863C13.8872 9.91958 13.8515 10.0513 13.7058 10.2217C13.4459 10.5257 13.7989 10.5028 9.36913 10.5028C4.93938 10.5028 5.29232 10.5257 5.03242 10.2217C4.8868 10.0513 4.85109 9.91958 4.87434 9.63863C4.89446 9.39572 5.03316 9.18672 5.25043 9.07187L5.40548 8.98992H9.36913H13.3328L13.4878 9.07187ZM13.4338 12.05C13.6119 12.1311 13.8281 12.3794 13.8576 12.5369C13.9283 12.9145 13.783 13.2601 13.4878 13.4161L13.3328 13.4981H9.36913H5.40548L5.25043 13.4161C5.03316 13.3013 4.89446 13.0923 4.87434 12.8493C4.85109 12.5684 4.8868 12.4366 5.03242 12.2663C5.29232 11.9623 4.93938 11.9852 9.36913 11.9852C13.104 11.9852 13.2979 11.9883 13.4338 12.05Z" fill="#344054"/>
</svg>
