<svg width="24" height="24" viewBox="0 0 24 24" fill="none" xmlns="http://www.w3.org/2000/svg">
<path fill-rule="evenodd" clip-rule="evenodd" d="M10.8515 0.0537331C7.81227 0.469463 5.2609 2.48074 4.29591 5.22165C3.94327 6.22319 3.89471 6.60269 3.86423 8.59404C3.84369 9.93566 3.81746 10.4178 3.75316 10.6354C3.64695 10.9951 3.34973 11.5514 2.84187 12.3414C2.1219 13.4612 1.95278 13.8634 1.83624 14.7328C1.65183 16.1093 2.19357 17.4962 3.30167 18.4847C3.80926 18.9376 4.33811 19.2364 4.99807 19.4435C5.509 19.6039 6.99441 19.8031 9.20381 20.0077C10.5605 20.1332 13.4214 20.1328 14.8412 20.0068C16.4801 19.8614 18.4045 19.6176 18.8584 19.498C20.0516 19.1835 21.0786 18.3809 21.6762 17.2956C22.0263 16.6599 22.1568 16.1896 22.1929 15.4329C22.2456 14.3269 22.047 13.7086 21.2216 12.4093C20.1448 10.7142 20.1899 10.8766 20.141 8.5154C20.1059 6.82249 20.0857 6.51068 19.9821 6.0669C19.2598 2.97212 16.6748 0.628488 13.3984 0.0978805C12.7208 -0.0118587 11.4873 -0.0332509 10.8515 0.0537331ZM13.5208 1.82387C14.6908 2.1167 15.5803 2.59063 16.4359 3.37711C17.3264 4.19561 17.8479 5.03625 18.1762 6.18219C18.3129 6.65927 18.3206 6.76324 18.3581 8.64647C18.3996 10.7314 18.4047 10.7738 18.7106 11.5372C18.8964 12.001 19.014 12.2106 19.6245 13.1666C20.2363 14.1246 20.3685 14.4387 20.4088 15.0278C20.4653 15.8572 20.1726 16.6285 19.5908 17.1833C19.2461 17.5119 18.66 17.8269 18.218 17.921C17.8613 17.9971 16.0547 18.2097 14.7574 18.3284C13.3607 18.4562 10.6047 18.4561 9.25962 18.3283C7.68814 18.179 6.07603 17.9833 5.72121 17.8987C4.82537 17.6852 4.08018 17.0201 3.75193 16.1412C3.63282 15.8223 3.60592 15.6551 3.6048 15.2266C3.60307 14.5344 3.73022 14.2016 4.38622 13.1815C5.01654 12.2013 5.19766 11.8639 5.42109 11.2535L5.59808 10.77L5.63693 8.8562C5.67829 6.81745 5.71725 6.47586 5.99593 5.70606C6.73169 3.67413 8.60284 2.1533 10.859 1.75351C11.5008 1.63984 12.937 1.6778 13.5208 1.82387ZM9.23054 21.0734C8.97374 21.1246 8.76242 21.2772 8.64242 21.4981C8.40063 21.9434 8.54853 22.3071 9.22904 22.9404C9.59753 23.2832 9.78898 23.4136 10.2127 23.6101C10.9029 23.9302 11.3939 24.0256 12.1899 23.9944C13.2531 23.9527 14.0645 23.6247 14.8127 22.9341C15.2971 22.487 15.5377 22.0727 15.4802 21.7849C15.3702 21.2339 14.7718 20.9133 14.2398 21.1203C14.1525 21.1543 13.9126 21.3567 13.7068 21.5702C13.1971 22.0988 12.7894 22.2908 12.1133 22.3207C11.7322 22.3376 11.5658 22.3201 11.3154 22.2371C10.891 22.0965 10.5317 21.8562 10.256 21.5285C10.1306 21.3795 9.98394 21.2286 9.93013 21.1931C9.78434 21.0972 9.42205 21.0353 9.23054 21.0734Z" fill="white"/>
</svg>
