<svg width="14" height="14" viewBox="0 0 14 14" fill="none" xmlns="http://www.w3.org/2000/svg">
<path d="M7 0C10.8633 0 14 3.1367 14 7C14 10.8633 10.8633 14 7 14C3.1367 14 0 10.8633 0 7C0 3.1367 3.1367 0 7 0Z" fill="#009915"/>
<path fill-rule="evenodd" clip-rule="evenodd" d="M10.6723 4.12865C10.8438 4.30019 10.8438 4.5783 10.6723 4.74983L6.05147 9.37067C5.87993 9.5422 5.60182 9.5422 5.43028 9.37067L3.12865 7.06904C2.95712 6.8975 2.95712 6.61939 3.12865 6.44785C3.30019 6.27632 3.5783 6.27632 3.74983 6.44785L5.74087 8.43889L10.0511 4.12865C10.2227 3.95712 10.5008 3.95712 10.6723 4.12865Z" fill="white" fill-opacity="0.9"/>
</svg>
