<svg width="18" height="18" viewBox="0 0 18 18" fill="none" xmlns="http://www.w3.org/2000/svg">
<path fill-rule="evenodd" clip-rule="evenodd" d="M8.61398 0.0182598C7.95803 0.0649762 7.21796 0.280978 6.66336 0.587523C6.22422 0.830229 5.97285 1.01928 5.57925 1.40294C4.8938 2.071 4.49445 2.75353 4.27891 3.62525C3.9619 4.90748 4.21959 6.28103 4.98699 7.39905C5.23235 7.75651 5.89893 8.4062 6.26568 8.64535C7.4095 9.39119 8.82244 9.64436 10.1287 9.33757C11.0272 9.12654 11.7343 8.73442 12.4178 8.06827C13.1013 7.40208 13.5036 6.71286 13.7201 5.83712C13.997 4.71713 13.8197 3.43141 13.2542 2.45959C13.0052 2.03157 12.8113 1.78658 12.4176 1.40294C12.024 1.01928 11.7727 0.830229 11.3335 0.587523C10.7954 0.290067 10.0461 0.0662093 9.46834 0.0303089C9.29936 0.0197748 9.12043 0.00691545 9.07073 0.00166603C9.02103 -0.00354817 8.8155 0.00388558 8.61398 0.0182598ZM7.44413 10.5859C6.06383 10.6679 4.65736 11.2094 3.54029 12.089C3.22032 12.3409 2.61269 12.9448 2.37842 13.2438C1.4543 14.4231 0.914628 15.8846 0.898796 17.2509C0.893771 17.6834 0.93975 17.8045 1.15587 17.9283C1.28079 17.9998 1.30151 18 8.99844 18C16.6954 18 16.7161 17.9998 16.841 17.9283C17.0571 17.8045 17.1031 17.6834 17.0981 17.2509C17.0822 15.8846 16.5426 14.4231 15.6185 13.2438C15.3842 12.9448 14.7766 12.3409 14.4566 12.089C13.3036 11.1811 11.9586 10.6744 10.4624 10.5842C9.8074 10.5447 8.12264 10.5456 7.44413 10.5859Z" fill="#101828"/>
</svg>
