<svg width="18" height="18" viewBox="0 0 18 18" fill="none" xmlns="http://www.w3.org/2000/svg">
<path fill-rule="evenodd" clip-rule="evenodd" d="M3.08084 1.82845C2.50845 1.98286 2.40143 2.78212 2.90845 3.1157C3.04363 3.20463 3.12575 3.20947 4.86726 3.23112C6.53106 3.25181 6.69441 3.26062 6.79601 3.33523C7.16043 3.60288 7.16039 4.30548 6.79597 4.57305C6.69291 4.64869 6.50802 4.65619 4.22163 4.67716C1.82835 4.69912 1.75431 4.70238 1.61719 4.79257C1.18381 5.07771 1.18381 5.72265 1.61719 6.00779C1.7558 6.09894 1.81951 6.10102 5.19004 6.12321C8.41017 6.1444 8.62864 6.15082 8.73287 6.22732C9.09733 6.49484 9.09733 7.19753 8.73287 7.46514C8.62981 7.54078 8.44492 7.54828 6.15853 7.56925C3.76525 7.59121 3.6912 7.59447 3.55409 7.68466C3.12071 7.96981 3.12071 8.61474 3.55409 8.89988C3.68769 8.98778 3.77461 8.99392 5.19012 9.0153C6.54248 9.03572 6.69566 9.04566 6.79605 9.11941C7.16043 9.38711 7.16039 10.0897 6.79597 10.3572C6.69243 10.4332 6.49644 10.4403 3.89877 10.4613C1.17973 10.4834 1.10928 10.4861 0.971556 10.5768C0.538175 10.8619 0.538175 11.5068 0.971556 11.792C1.09826 11.8753 1.19942 11.8871 1.96208 11.9074C2.69084 11.9268 2.82723 11.9415 2.92234 12.0115C3.28655 12.2793 3.28655 12.9816 2.92234 13.2493C2.83542 13.3132 2.69661 13.3364 2.2809 13.3565C1.85313 13.3773 1.72384 13.3997 1.61323 13.472C1.18373 13.7529 1.18587 14.4003 1.61719 14.6841C1.74636 14.769 1.84308 14.7788 2.76113 14.7995L3.76396 14.8221L3.8376 15.0396C4.06995 15.7257 4.67862 16.197 5.33531 16.1993C6.05515 16.2018 6.70373 15.7711 7.0677 15.0488L7.19336 14.7995H9.67243C11.9977 14.7995 12.1529 14.8044 12.1747 14.8786C12.2537 15.1471 12.4241 15.464 12.5951 15.6607C13.3995 16.5855 14.8404 16.28 15.4585 15.0538L15.5816 14.8093L16.3198 14.793C17.0423 14.7769 17.0615 14.774 17.2222 14.6549C17.3363 14.5703 17.406 14.4739 17.4506 14.3387C17.5105 14.1577 18 9.40071 18 9.00038C18 8.88425 17.7934 8.31085 17.3093 7.08356C16.4077 4.79772 16.4805 4.95991 16.2921 4.82018C16.1865 4.74193 16.0588 4.69923 15.9275 4.69825L14.3209 4.68629L12.5121 4.67282V4.56487C12.5121 4.50549 12.5585 3.99666 12.6152 3.43415L12.6967 2.62653C12.7109 2.48545 12.6888 2.34307 12.6325 2.21292C12.5814 2.09452 12.4868 1.97269 12.3983 1.91106C12.3016 1.84374 12.1867 1.80756 12.0689 1.80738L7.7304 1.80052C5.24472 1.79659 3.15242 1.80916 3.08084 1.82845ZM16.157 7.59668C16.4826 8.4071 16.7491 9.12614 16.7491 9.1946C16.7491 9.26302 16.7375 9.414 16.7233 9.53013L16.6974 9.7413L15.1193 9.72851C13.3293 9.71401 13.4065 9.73018 13.2314 9.33352C13.173 9.2014 13.1496 9.05653 13.1632 8.91275L13.2541 7.95526C13.3736 6.69679 13.3978 6.55729 13.5299 6.36926C13.6843 6.14937 13.7934 6.12691 14.7144 6.12497L15.5649 6.12321L16.157 7.59668ZM0.498308 7.61033C-0.0756194 7.77536 -0.181342 8.56616 0.325924 8.89988C0.446173 8.97896 0.535674 8.9927 0.931083 8.9927C1.32649 8.9927 1.41599 8.97896 1.53624 8.89988C1.96676 8.61664 1.9697 7.96872 1.54177 7.68887C1.43815 7.62104 1.31475 7.597 1.01736 7.58656C0.80345 7.57906 0.569892 7.58977 0.498308 7.61033ZM5.93635 13.4456C6.2519 13.799 6.05587 14.5582 5.59921 14.7514C5.28862 14.8829 5.04957 14.7632 4.96532 14.4342C4.89979 14.1784 5.01181 13.7558 5.19412 13.5712C5.42126 13.3412 5.78769 13.2791 5.93635 13.4456ZM14.3296 13.4456C14.6451 13.799 14.4491 14.5582 13.9924 14.7514C13.6818 14.8829 13.4428 14.7632 13.3585 14.4342C13.293 14.1784 13.405 13.7558 13.5873 13.5712C13.8145 13.3412 14.1809 13.2791 14.3296 13.4456Z" fill="#475467"/>
</svg>
