<svg width="22" height="22" viewBox="0 0 22 22" fill="none" xmlns="http://www.w3.org/2000/svg">
<path fill-rule="evenodd" clip-rule="evenodd" d="M10.2509 0.83519C7.6805 1.03346 5.31486 2.25069 3.66905 4.22192C3.01538 5.00488 2.50019 5.85012 2.14298 6.72585L1.96964 7.1509L1.54133 7.18447C0.862492 7.23763 0.387169 7.53998 0.11638 8.091C0.00096978 8.32576 0 8.34525 0 10.4256V12.5235L0.142413 12.8142C0.296821 13.1294 0.518404 13.3527 0.856418 13.5337C1.05845 13.642 1.14339 13.6502 2.21332 13.6655C3.3368 13.6817 3.35666 13.6801 3.47666 13.5671L3.59861 13.4522V10.4246C3.59861 6.95917 3.64072 7.24193 3.11594 7.18267L2.83448 7.1509L3.10603 6.58806C3.81049 5.12794 4.85409 3.93773 6.21155 3.04614C9.58878 0.828027 14.1442 1.25036 17.0374 4.04984C17.8924 4.87707 18.4299 5.61664 18.9194 6.63922L19.1643 7.1509L18.8835 7.18267C18.3594 7.24198 18.4014 6.95953 18.4014 10.4246V13.4522L18.5195 13.5635C18.6061 13.645 18.7015 13.6748 18.8768 13.6748C19.0084 13.6748 19.116 13.6965 19.116 13.7231C19.116 13.8126 18.7761 14.5158 18.5412 14.9123C17.4718 16.7171 15.7603 18.1058 13.7918 18.7661C13.1476 18.9822 12.4655 19.1309 12.442 19.0603C12.4329 19.0327 12.3595 18.9059 12.2789 18.7786C12.0867 18.4747 11.7441 18.2445 11.3328 18.1428C11.027 18.0671 10.973 18.0671 10.6672 18.1428C10.0524 18.2949 9.64529 18.6963 9.49012 19.3035C9.39716 19.6672 9.42366 19.9246 9.59266 20.301C9.76101 20.6757 9.94487 20.866 10.3151 21.0488C11.1647 21.468 12.1491 21.0636 12.4677 20.1644C12.5243 20.0047 12.585 19.9172 12.6392 19.9172C12.8291 19.9172 13.9771 19.596 14.4559 19.4089C16.947 18.4358 18.9471 16.4496 19.9276 13.9751L20.0417 13.6869L20.4849 13.6644C21.1581 13.6302 21.5884 13.3637 21.8576 12.8142L22 12.5235V10.4256C22 8.34525 21.999 8.32576 21.8836 8.091C21.6123 7.53895 21.1376 7.23747 20.4559 7.18447L20.0248 7.1509L19.8594 6.74156C18.6744 3.8091 15.9802 1.59058 12.8745 0.989767C12.3872 0.895465 11.1365 0.76944 10.8724 0.787962C10.8162 0.791902 10.5366 0.813137 10.2509 0.83519ZM10.0567 3.90422C7.95736 4.23415 6.08747 5.58062 5.15719 7.43232C4.64348 8.45485 4.45247 9.25388 4.44783 10.4C4.44027 12.251 5.05439 13.7541 6.35228 15.0617C7.64503 16.364 9.19217 17.0082 11.0199 17.0051C12.8291 17.0021 14.3642 16.3572 15.6459 15.0617C16.9377 13.7561 17.5552 12.256 17.5544 10.4256C17.5536 8.61961 16.9015 7.04667 15.6229 5.76656C14.7313 4.87394 13.614 4.26403 12.3437 3.97641C11.9242 3.88145 10.4898 3.83616 10.0567 3.90422Z" fill="#98A2B3"/>
</svg>
