<svg width="12" height="12" viewBox="0 0 12 12" fill="none" xmlns="http://www.w3.org/2000/svg">
<path fill-rule="evenodd" clip-rule="evenodd" d="M7.70069 0.0273158C7.63623 0.0441465 7.52547 0.0875127 7.45456 0.123706C7.38365 0.159876 6.13205 0.884279 4.67324 1.73351L2.02082 3.27753H1.4719C0.871384 3.27753 0.77347 3.29256 0.55113 3.41876C0.296067 3.56356 0.0780872 3.87223 0.0236802 4.16562C-0.00754346 4.334 -0.00805917 10.9021 0.023141 11.0925C0.0948945 11.5307 0.467164 11.903 0.905397 11.9748C0.990746 11.9888 2.83643 11.9973 5.74335 11.9971C10.9043 11.9968 10.6312 12.0043 10.8915 11.8554C11.1338 11.7168 11.311 11.4985 11.4078 11.2193C11.4447 11.1128 11.4509 11.0179 11.4511 10.552C11.4513 10.0371 11.4487 10.0054 11.4021 9.94251C11.3093 9.81724 11.3199 9.81835 10.1827 9.81797C9.3438 9.81769 9.08285 9.81026 8.92113 9.78206C8.15969 9.64929 7.5592 9.1702 7.26152 8.45803C7.13379 8.1524 7.11466 8.04406 7.11469 7.62587C7.11469 7.30615 7.12249 7.22385 7.16759 7.06823C7.39021 6.29997 7.95095 5.74518 8.7321 5.52031C8.88365 5.47669 8.98703 5.47202 10.0842 5.45946C11.2426 5.44617 11.2738 5.44462 11.3383 5.39671C11.4539 5.31086 11.4684 5.21998 11.4557 4.66056C11.441 4.00967 11.3998 3.8727 11.1403 3.61152C10.9825 3.45275 10.8303 3.36595 10.6072 3.30749L10.4456 3.26518L9.65419 1.88245C8.85756 0.490631 8.74865 0.323706 8.54671 0.18477C8.32015 0.0288863 7.95489 -0.0390931 7.70069 0.0273158ZM8.16909 0.594874C8.26382 0.639834 8.42331 0.794991 8.39846 0.81801C8.38857 0.827152 7.43576 1.3843 6.28107 2.0561L4.18165 3.27753H3.65683C3.33831 3.27753 3.14075 3.26909 3.15427 3.25606C3.20413 3.20796 7.70259 0.602211 7.79176 0.569768C7.90219 0.52959 8.05261 0.539599 8.16909 0.594874ZM9.51558 2.74101C9.67127 3.01318 9.79868 3.24525 9.79868 3.25671C9.79868 3.26857 9.29242 3.27753 8.6227 3.27753C7.97594 3.27753 7.4531 3.27118 7.46089 3.26339C7.48578 3.23848 9.19708 2.24612 9.21513 2.24612C9.22467 2.24612 9.35988 2.46881 9.51558 2.74101ZM8.98304 6.02233C8.41349 6.11951 7.90076 6.5727 7.71994 7.13881C7.43956 8.01652 7.9505 8.95559 8.84835 9.21277C9.0337 9.26586 9.05611 9.26675 10.1972 9.26675H11.1886C11.2998 9.26675 11.4096 9.24182 11.5099 9.19378C11.7605 9.07376 11.9248 8.8732 11.9783 8.62212C11.9975 8.53203 12.0035 8.21077 11.9981 7.55555L11.9916 6.76536C11.9908 6.6682 11.9691 6.57235 11.9278 6.48438C11.848 6.31403 11.6848 6.15086 11.5145 6.07102C11.4265 6.02979 11.3306 6.00827 11.2335 6.00796L10.2441 6.00479C9.61877 6.00278 9.0513 6.01068 8.98304 6.02233ZM9.48883 7.13485C9.73916 7.23942 9.87873 7.5494 9.78834 7.80006C9.73227 7.95552 9.64957 8.04875 9.50498 8.11949C9.23321 8.25245 8.92948 8.14401 8.78599 7.86279C8.69282 7.68011 8.74352 7.38063 8.89054 7.24544C9.04584 7.10266 9.29952 7.05576 9.48883 7.13485Z" fill="#F2F4F7"/>
</svg>
