<svg width="22" height="22" viewBox="0 0 22 22" fill="none" xmlns="http://www.w3.org/2000/svg">
<path fill-rule="evenodd" clip-rule="evenodd" d="M4.30442 1.12867C2.13099 1.41905 0.389196 3.14399 0.0637072 5.32845C0.0128885 5.66951 0.000216064 6.29761 1.27666e-06 8.47834C-0.000170553 10.181 0.0170124 11.3278 0.0457939 11.5373C0.336315 13.6501 1.95151 15.369 4.027 15.7739L4.29549 15.8263V18.1072C4.29549 20.3716 4.29617 20.3892 4.38931 20.5569C4.48678 20.7323 4.7523 20.8996 4.93332 20.8996C5.19871 20.8996 5.36697 20.7464 7.77555 18.3121L10.2032 15.8585H13.8377C16.8661 15.8585 17.5334 15.8477 17.8395 15.7937C19.9709 15.4176 21.5851 13.7783 21.9276 11.6419C22.0228 11.0483 22.0247 5.96394 21.93 5.32845C21.7738 4.2799 21.2939 3.32656 20.5354 2.55752C19.8555 1.86832 19.1075 1.44661 18.1278 1.20016C17.7648 1.10885 17.7237 1.10828 11.1687 1.10046C7.54199 1.09612 4.4531 1.10881 4.30442 1.12867ZM11.1325 5.54435C11.2065 5.5882 11.3018 5.67299 11.3443 5.73274C11.3867 5.7925 11.7913 7.06365 12.2433 8.55752C13.0628 11.2662 13.0649 11.274 12.9931 11.4104C12.8798 11.6259 12.5388 11.7921 12.2068 11.7938C11.8404 11.7956 11.7896 11.7307 11.603 11.0224L11.4574 10.4697H10.5492H9.64102L9.4966 11.0238C9.33744 11.6344 9.25883 11.7609 9.01342 11.8012C8.63616 11.8632 8.07574 11.5522 8.07574 11.2809C8.07574 11.0954 9.6503 5.86873 9.74713 5.73274C9.7897 5.67299 9.88601 5.58764 9.96123 5.54309C10.2346 5.38117 10.8582 5.38182 11.1325 5.54435ZM8.03923 5.51893C8.22777 5.62101 8.30707 6.0695 8.18769 6.35858C8.07067 6.64193 8.05375 6.64536 6.77744 6.64536H5.62717V7.38415V8.12294H6.35362H7.08007L7.19129 8.25666C7.27768 8.36048 7.30251 8.43771 7.30251 8.60228C7.30251 9.1004 7.18536 9.16593 6.29516 9.16593H5.62717L5.62579 10.3284C5.62481 11.174 5.61016 11.5096 5.5721 11.5594C5.35069 11.849 4.72571 11.8922 4.40851 11.6397L4.29549 11.5498V8.66017C4.29549 6.67622 4.31001 5.74304 4.34184 5.6829C4.44502 5.48786 4.56101 5.47552 6.30658 5.47369C7.40659 5.47256 7.98128 5.48755 8.03923 5.51893ZM16.7062 5.53892C17.0653 5.62453 17.4464 5.83283 17.6394 6.04895C17.8436 6.27767 18.0276 6.68761 18.0826 7.03649C18.1404 7.40332 18.1404 9.92901 18.0826 10.2958C17.9596 11.0761 17.4575 11.61 16.679 11.7883L16.431 11.8451L16.4095 12.1895C16.3847 12.5879 16.3652 12.6294 16.1643 12.7143C16.0464 12.7642 15.9849 12.767 15.8681 12.728C15.668 12.6612 15.5933 12.4991 15.5933 12.1319V11.8343L15.3275 11.7787C14.6337 11.6337 14.1618 11.1811 13.9838 10.4899C13.8888 10.1208 13.8874 7.21701 13.982 6.84931C14.0772 6.47975 14.2276 6.21144 14.466 5.9858C14.7188 5.74661 14.9469 5.62193 15.2823 5.5397C15.6163 5.45779 16.3643 5.45739 16.7062 5.53892ZM15.6577 6.70634C15.4962 6.77843 15.4002 6.88643 15.3157 7.09098C15.2607 7.22414 15.2499 7.48658 15.2515 8.65391C15.2535 10.1149 15.2708 10.2772 15.4455 10.4725C15.5636 10.6046 15.5933 10.5741 15.5933 10.3209C15.5933 10.1307 15.6148 10.0594 15.7045 9.95152C15.7981 9.83905 15.8461 9.8178 16.0071 9.8178C16.2966 9.8178 16.4095 9.95135 16.4095 10.2939C16.4095 10.4384 16.4271 10.5566 16.4486 10.5566C16.5387 10.5566 16.7072 10.2806 16.7528 10.0583C16.7851 9.9009 16.7972 9.37245 16.7882 8.5042C16.775 7.22649 16.7717 7.18316 16.6754 7.00063C16.6045 6.86613 16.525 6.78912 16.3962 6.72998C16.1872 6.63393 15.8443 6.62298 15.6577 6.70634ZM10.2446 8.21989C10.0837 8.82387 9.94349 9.3425 9.93292 9.37236C9.9181 9.41425 10.0582 9.42668 10.5441 9.42668C11.1244 9.42668 11.1727 9.42064 11.1518 9.35063C11.1394 9.30878 11.0011 8.79545 10.8445 8.20985C10.6879 7.62426 10.5547 7.13987 10.5484 7.13344C10.5421 7.12705 10.4055 7.61596 10.2446 8.21989Z" fill="#98A2B3"/>
</svg>
