<svg width="22" height="22" viewBox="0 0 22 22" fill="none" xmlns="http://www.w3.org/2000/svg">
<path fill-rule="evenodd" clip-rule="evenodd" d="M8.59803 0.0244332C7.11141 0.104331 5.23968 0.32548 4.57345 0.499947C2.91121 0.935275 1.34462 2.35614 0.687595 4.02443C0.305708 4.99409 0 7.88228 0 10.5209C0 12.6142 0.241049 15.4049 0.51417 16.4737C0.962349 18.2274 2.51483 19.8658 4.28988 20.4584C5.03646 20.7076 6.72591 20.9197 8.79149 21.0235C9.7424 21.0713 12.4099 21.0504 12.9274 20.9911L13.1511 20.9654L12.9747 20.7054C12.6018 20.1559 12.2988 19.4186 12.1399 18.6741C12.0376 18.1946 12.0382 17.0411 12.1409 16.5659C12.6371 14.2725 14.2813 12.627 16.5728 12.1305C17.0477 12.0276 18.2002 12.0271 18.6794 12.1295C19.4241 12.2887 20.1599 12.5917 20.7106 12.9659L20.9718 13.1435L21.0078 12.768C21.0638 12.1846 21.0492 8.74631 20.9873 7.93937C20.8566 6.2358 20.659 4.85942 20.4597 4.26391C19.9036 2.60293 18.4336 1.1347 16.7754 0.584061C16.1923 0.390405 14.7426 0.18255 13.1551 0.0649198C12.3129 0.00249036 9.47509 -0.0227223 8.59803 0.0244332ZM16.2074 5.16821C16.6683 5.38261 16.8977 5.71115 16.9292 6.20181C16.9446 6.44253 16.9308 6.56958 16.8727 6.72181C16.7799 6.96524 16.5107 7.26749 16.2738 7.39442L16.0999 7.48761L10.6209 7.49901C4.46889 7.51183 4.89377 7.53326 4.52152 7.1913C4.04604 6.75446 3.98826 6.03121 4.38846 5.52549C4.54959 5.3219 4.8252 5.15307 5.07911 5.10247C5.18203 5.08195 7.68448 5.06809 10.6401 5.07166C15.9955 5.07816 16.0146 5.07851 16.2074 5.16821ZM11.9747 10.2914C12.2116 10.4183 12.4808 10.7206 12.5737 10.964C12.6317 11.1162 12.6455 11.2433 12.6301 11.484C12.5986 11.9747 12.3692 12.3032 11.9083 12.5176C11.7173 12.6065 11.6733 12.6076 8.38308 12.6076H5.05129L4.80457 12.4864C4.06306 12.1219 3.89028 11.1436 4.46253 10.5496C4.62293 10.3831 4.78913 10.2774 4.98655 10.2163C5.04579 10.198 6.60326 10.1864 8.44756 10.1906C11.7971 10.1982 11.801 10.1983 11.9747 10.2914ZM16.9382 13.2938C16.4526 13.3738 15.798 13.6125 15.3716 13.8651C14.8982 14.1457 14.1545 14.8899 13.8742 15.3637C13.6068 15.8157 13.3817 16.4537 13.299 16.9939C12.9644 19.1807 14.3836 21.3093 16.5462 21.8644C18.1489 22.2757 19.8792 21.7331 20.9397 20.4867C23.0539 18.0021 21.8518 14.1812 18.7028 13.3767C18.1848 13.2443 17.4491 13.2098 16.9382 13.2938ZM18.1609 14.7009C18.3536 14.7888 18.416 14.9396 18.4338 15.3612C18.4616 16.0202 18.3342 16.2208 17.8569 16.2702C17.4432 16.313 17.1277 16.2576 16.9673 16.1142C16.8342 15.9953 16.8304 15.9817 16.8156 15.5719C16.7871 14.781 16.8991 14.6517 17.6133 14.6515C17.8546 14.6514 18.101 14.6736 18.1609 14.7009ZM18.004 16.9271C18.201 17.0277 18.2915 17.1254 18.3768 17.3298C18.4745 17.5639 18.4742 19.8713 18.3764 20.1055C18.1004 20.7665 17.1758 20.7818 16.8878 20.1301C16.8105 19.9552 16.8055 19.8507 16.8177 18.6594L16.8308 17.3769L16.9489 17.1984C17.0139 17.1001 17.1396 16.9815 17.2284 16.9346C17.4407 16.8224 17.7924 16.819 18.004 16.9271Z" fill="#98A2B3"/>
</svg>
