<svg width="22" height="21" viewBox="0 0 22 21" fill="none" xmlns="http://www.w3.org/2000/svg">
<path fill-rule="evenodd" clip-rule="evenodd" d="M10.4845 0.0675522C9.57651 0.311358 8.95976 1.2427 9.09328 2.1685C9.25011 3.25632 10.2259 3.98976 11.2933 3.82202C12.3861 3.65033 13.1135 2.59728 12.8805 1.52446C12.6451 0.440588 11.5577 -0.220562 10.4845 0.0675522ZM7.57515 2.72449C7.43053 2.77701 7.21761 2.87499 7.10199 2.94221C6.77757 3.13079 6.30961 3.6276 6.13011 3.97399C5.8678 4.48025 5.83786 4.733 5.83786 6.4417C5.83786 7.87157 5.84242 7.95821 5.92953 8.1908C6.03909 8.48347 6.31348 8.77541 6.6037 8.90808C6.89896 9.04311 7.37698 9.0386 7.66269 8.89811C7.93226 8.76557 8.16037 8.53767 8.29303 8.26833C8.38998 8.0715 8.39828 8.00063 8.41205 7.25095L8.4268 6.44514H10.9997H13.5725L13.5873 7.25095C13.601 8.00063 13.6093 8.0715 13.7063 8.26833C13.8389 8.53767 14.067 8.76557 14.3366 8.89811C14.6223 9.0386 15.1004 9.04311 15.3956 8.90808C15.6858 8.77541 15.9602 8.48347 16.0698 8.1908C16.1569 7.95821 16.1614 7.87157 16.1614 6.4417C16.1614 4.733 16.1315 4.48025 15.8692 3.97399C15.6897 3.62773 15.2218 3.13079 14.8977 2.94238C14.7822 2.87529 14.5675 2.77679 14.4206 2.7235L14.1534 2.62663L14.0775 2.87052C13.9194 3.37812 13.6714 3.77918 13.2597 4.19252C12.9308 4.52276 12.8078 4.61391 12.4622 4.78341C11.8995 5.05936 11.6007 5.13027 10.9997 5.13027C10.3987 5.13027 10.0998 5.05936 9.53715 4.78341C9.19131 4.61378 9.0688 4.52297 8.74 4.19252C8.3289 3.77935 8.11391 3.43622 7.93114 2.90142L7.83806 2.629L7.57515 2.72449ZM4.65495 9.95972C4.41626 10.0472 2.27584 11.2716 1.95869 11.502C1.30164 11.9794 0.894202 12.7837 0.891879 13.6082C0.89132 13.8139 0.958208 14.2735 0.998599 14.3415C1.00191 14.347 1.13878 14.3232 1.30276 14.2885C1.67948 14.2088 2.24823 14.2076 2.61768 14.2859C4.24859 14.6312 5.38801 16.2228 5.15315 17.8276C5.05499 18.4984 4.81325 19.0392 4.38753 19.5406L4.15895 19.8098L4.3329 19.9669C5.09168 20.6518 6.257 20.8232 7.14982 20.3813C7.60677 20.1551 9.63836 18.9657 9.79601 18.832C10.2008 18.4888 10.3291 17.806 10.0796 17.3232C9.84883 16.8767 9.42935 16.6159 8.93494 16.6115C8.59396 16.6085 8.51038 16.6413 7.76029 17.0723C7.43363 17.26 7.16113 17.4066 7.15477 17.3981C7.09674 17.3209 4.6362 13.0283 4.62575 12.986C4.61757 12.9529 4.84035 12.7971 5.17113 12.6046C5.47869 12.4257 5.8084 12.2161 5.90385 12.1389C6.30118 11.8176 6.44859 11.1591 6.23188 10.6741C5.96588 10.0788 5.23424 9.74728 4.65495 9.95972ZM16.6131 9.94338C16.3506 10.0263 16.1983 10.1182 16.0238 10.2988C15.6473 10.6883 15.5574 11.2629 15.7972 11.7467C15.9499 12.0549 16.1041 12.1832 16.8282 12.6046C17.159 12.7971 17.3817 12.9529 17.3736 12.986C17.3631 13.0283 14.9026 17.3209 14.8445 17.3981C14.8382 17.4066 14.5657 17.26 14.239 17.0723C13.4889 16.6413 13.4054 16.6085 13.0644 16.6115C12.5696 16.6159 12.1485 16.8813 11.9124 17.3377C11.7479 17.6554 11.7497 18.1041 11.9169 18.4455C11.9831 18.5806 12.112 18.7546 12.2033 18.832C12.3609 18.9657 14.3925 20.1551 14.8495 20.3813C15.7423 20.8232 16.9076 20.6518 17.6664 19.9669L17.8404 19.8098L17.6118 19.5406C17.1861 19.0392 16.9443 18.4984 16.8462 17.8276C16.6113 16.2228 17.7507 14.6312 19.3816 14.2859C19.7511 14.2076 20.3198 14.2088 20.6966 14.2885C20.8605 14.3232 20.9974 14.347 21.0007 14.3415C21.0411 14.2735 21.108 13.8139 21.1074 13.6082C21.1051 12.7838 20.6978 11.9797 20.0406 11.5019C19.697 11.2521 17.4959 10.0041 17.2896 9.94201C17.0522 9.87067 16.8419 9.8711 16.6131 9.94338ZM1.4457 15.5755C0.942163 15.7142 0.44147 16.1314 0.206608 16.6081C-0.389794 17.8185 0.361333 19.1686 1.73639 19.3575C2.13871 19.4128 2.73094 19.2554 3.08512 18.9991C3.66922 18.5763 3.99295 17.7873 3.8603 17.1097C3.7131 16.3577 3.16995 15.7639 2.46055 15.5793C2.15974 15.501 1.72194 15.4993 1.4457 15.5755ZM19.5202 15.5814C18.6061 15.827 17.982 16.7838 18.1344 17.706C18.2785 18.5778 18.888 19.1863 19.7707 19.3395C20.5917 19.4819 21.5022 18.9938 21.8405 18.2298C22.3981 16.9704 21.4217 15.505 20.0328 15.5165C19.879 15.5178 19.6483 15.547 19.5202 15.5814Z" fill="#98A2B3"/>
</svg>
