<svg width="20" height="20" viewBox="0 0 20 20" fill="none" xmlns="http://www.w3.org/2000/svg">
<path fill-rule="evenodd" clip-rule="evenodd" d="M9.1101 0.0499856C8.0048 0.217783 7.01727 0.723481 6.24325 1.51807C5.39415 2.38973 4.95412 3.39628 4.89361 4.60529C4.8091 6.2939 5.66719 7.90812 7.14663 8.84373C7.87431 9.30389 8.57617 9.53755 9.42628 9.60259C11.002 9.72313 12.3456 9.24487 13.4302 8.17731C14.2889 7.33222 14.728 6.41272 14.8349 5.23587C14.9778 3.66382 14.3652 2.19973 13.1373 1.17825C12.3453 0.519411 11.6145 0.194018 10.6076 0.0517445C10.1239 -0.0166174 9.55329 -0.0172818 9.1101 0.0499856ZM5.43418 9.6901C3.60387 9.87678 2.33554 11.1451 1.74409 13.3802C1.34971 14.8705 1.24829 16.6614 1.50279 17.6406C1.70726 18.4271 2.38156 19.2253 3.16262 19.6054C3.51742 19.778 4.02427 19.9212 4.4469 19.9681C4.69731 19.9959 6.60885 20.0054 10.2636 19.9971L15.7073 19.9846L16.0514 19.8934C17.3285 19.5549 18.2051 18.7285 18.524 17.5624C18.6902 16.9549 18.6689 15.5093 18.477 14.3671C18.0503 11.8279 16.9739 10.3034 15.2712 9.82694C14.8819 9.71801 14.1854 9.63515 13.979 9.67325C13.7815 9.70968 13.5054 9.85215 12.8821 10.2391C12.2182 10.6514 12.1261 10.6983 11.629 10.8782C11.0531 11.0865 10.5779 11.1743 10.0264 11.1744C9.45635 11.1744 9.02045 11.099 8.44552 10.901C7.9026 10.714 7.87909 10.702 7.0312 10.182C6.58408 9.90773 6.25329 9.73208 6.12183 9.69917C5.89716 9.64289 5.8972 9.64289 5.43418 9.6901Z" fill="#98A2B3"/>
</svg>
