<svg width="18" height="18" viewBox="0 0 18 18" fill="none" xmlns="http://www.w3.org/2000/svg">
<path d="M14.7928 15.3443L9.02804 17.9998L3.29688 15.3443V11.8652L7.85156 14.0669L9.02804 11.8652L10.1541 14.0669L14.7928 11.8652V15.3443Z" fill="#475467"/>
<path d="M16.32 10.4373L10.6057 12.992L8.99219 10.3365L13.7317 8.10118L10.7905 6.75662L11.3452 6.13477L14.7402 7.71462L16.32 10.4373Z" fill="#475467"/>
<path d="M9.02823 10.3199L7.48199 13.0426L1.68359 10.4544L3.26345 7.68121L6.74248 6.11816L7.2635 6.77363L4.23825 8.11819L9.02823 10.3199Z" fill="#475467"/>
<path d="M9.02926 4.00005C9.2488 4.00005 9.4368 3.92165 9.59328 3.76485C9.74948 3.60831 9.82758 3.42004 9.82758 3.20004C9.82758 2.98004 9.74948 2.79164 9.59328 2.63483C9.4368 2.4783 9.2488 2.40003 9.02926 2.40003C8.80971 2.40003 8.62184 2.4783 8.46563 2.63483C8.30916 2.79164 8.23093 2.98004 8.23093 3.20004C8.23093 3.42004 8.30916 3.60831 8.46563 3.76485C8.62184 3.92165 8.80971 4.00005 9.02926 4.00005ZM9.02926 8.0001C7.95816 7.08676 7.15824 6.23835 6.62948 5.45487C6.10045 4.67166 5.83594 3.94672 5.83594 3.28004C5.83594 2.28003 6.157 1.48335 6.79912 0.890011C7.44098 0.29667 8.18436 0 9.02926 0C9.87415 0 10.6175 0.29667 11.2594 0.890011C11.9015 1.48335 12.2226 2.28003 12.2226 3.28004C12.2226 3.94672 11.9582 4.67166 11.4294 5.45487C10.9004 6.23835 10.1003 7.08676 9.02926 8.0001Z" fill="#475467"/>
</svg>
