<svg width="22" height="22" viewBox="0 0 22 22" fill="none" xmlns="http://www.w3.org/2000/svg">
<path fill-rule="evenodd" clip-rule="evenodd" d="M11.1236 0.0308786C10.8383 0.103814 10.4322 0.348307 10.235 0.565874C10.1338 0.677616 9.98673 0.906972 9.90827 1.07546C9.77904 1.35293 9.76556 1.42325 9.76556 1.82004C9.76556 2.23356 9.77503 2.27765 9.93397 2.6048C10.1368 3.02232 10.3979 3.28236 10.8171 3.48438C11.0895 3.61566 11.1593 3.62956 11.5466 3.62956C11.934 3.62956 12.0038 3.61566 12.2762 3.48438C12.6954 3.28236 12.9565 3.02232 13.1593 2.6048C13.3184 2.27728 13.3277 2.23393 13.3277 1.81765C13.3277 1.40137 13.3184 1.35802 13.1593 1.0305C12.8546 0.403306 12.3133 0.0352822 11.648 0.00308066C11.4559 -0.00623119 11.2199 0.00629167 11.1236 0.0308786ZM10.0002 4.08286C9.5967 4.23579 9.26384 4.58409 9.16347 4.95822C9.14291 5.03478 8.88598 6.26734 8.59245 7.69719C8.06503 10.2666 8.05948 10.3 8.11683 10.5607C8.16504 10.7799 8.21409 10.8644 8.40658 11.0599C8.6934 11.3511 8.77006 11.373 9.94592 11.5006C10.4419 11.5544 10.8833 11.6176 10.9266 11.6409C11.1509 11.7611 11.1497 11.7222 11.005 14.1591C10.9309 15.4064 10.8703 16.5085 10.8703 16.6082V16.7896L10.7174 16.6389C10.5206 16.4449 10.3502 16.1241 10.263 15.7838C10.1778 15.4511 10.1757 15.2119 10.255 14.9009L10.316 14.6616H7.55758H4.79922L4.59253 15.04C3.74704 16.5883 3.42505 17.8463 3.66804 18.6524C3.82717 19.1802 4.2842 19.581 4.84449 19.6841L5.114 19.7337L5.17325 20.0301C5.33859 20.8578 5.97288 21.5403 6.80908 21.7902C7.12525 21.8846 7.71842 21.8843 8.03265 21.7894C8.77524 21.5653 9.36358 20.9951 9.60518 20.2656C9.65622 20.1115 9.69793 19.9229 9.69793 19.8465V19.7074L12.8204 19.7071C15.5022 19.7069 15.9612 19.6972 16.0721 19.6383C16.2242 19.5576 16.236 19.5558 16.236 19.6139C16.236 19.718 16.4339 20.184 16.5118 20.2631C16.6504 20.4042 16.8925 20.3773 17.0485 20.2037C17.1437 20.0976 17.1852 20.0756 17.2003 20.1234C17.2118 20.1595 17.2458 20.2716 17.2759 20.3725C17.377 20.7122 17.5537 21.0103 17.8223 21.2949C18.2783 21.7781 18.8109 22.0016 19.502 22C20.392 21.9979 21.121 21.5337 21.5307 20.7083C21.7643 20.2375 21.8373 19.5908 21.7096 19.1225C21.6892 19.0477 21.7006 19.0193 21.7511 19.0193C21.7894 19.0193 21.8648 18.9625 21.9187 18.8932C22.0025 18.7853 22.0127 18.7305 21.9887 18.5147C21.8343 17.1252 20.6767 16.0039 19.3035 15.9133L18.9087 15.8873L18.9465 15.7217C19.0127 15.4321 18.9909 14.9609 18.897 14.6516C18.7574 14.1918 18.506 13.839 18.0706 13.492C17.8618 13.3255 17.6049 13.0716 17.4999 12.9278C17.0489 12.3102 16.7308 11.4229 16.6209 10.4758L16.5903 10.2121L17.0557 10.2116C17.4503 10.2112 17.5554 10.1947 17.7466 10.103C18.0152 9.97414 18.1377 9.8473 18.2613 9.56987C18.3389 9.39579 18.3535 9.268 18.3543 8.75419C18.3554 8.07695 18.3232 7.94948 18.0795 7.66714C17.7923 7.33444 17.7381 7.32444 16.2135 7.32251L14.8608 7.32086L14.3197 7.13586C13.2816 6.78095 12.4656 6.32073 11.9915 5.82289C11.7489 5.56808 11.7365 5.54335 11.7141 5.2701C11.6742 4.78446 11.4032 4.364 10.9917 4.14947C10.7518 4.02433 10.2444 3.99025 10.0002 4.08286ZM0.724951 5.18033C0.503648 5.25129 0.126197 5.6489 0.0583356 5.88257C-0.0194452 6.15041 -0.0194452 10.3288 0.0583356 10.5967C0.131517 10.8486 0.505046 11.2286 0.752727 11.3031C0.889305 11.3441 1.64615 11.3588 3.61921 11.3588C6.68445 11.3588 6.58191 11.3702 6.91581 10.9924C7.02303 10.8711 7.13486 10.69 7.16435 10.5899C7.24001 10.3329 7.24001 6.14628 7.16435 5.88936C7.13486 5.78927 7.02303 5.60812 6.91581 5.48679C6.58101 5.10799 6.68878 5.11969 3.59143 5.12505C1.75454 5.12822 0.831996 5.14602 0.724951 5.18033ZM11.4049 7.91191C12.1165 8.47924 13.1551 8.90649 14.2633 9.08768L14.4324 9.11534V13.127V17.1386H13.721H13.0095L13.3132 14.2373C13.4803 12.6415 13.6178 11.2351 13.6188 11.1119C13.6227 10.6667 13.4229 10.2984 13.0812 10.1211C12.9876 10.0725 12.528 9.8873 12.0598 9.70941C11.5915 9.53157 11.1638 9.36254 11.1092 9.33378C10.9215 9.23492 10.9144 9.08653 11.0651 8.40832C11.1418 8.06324 11.2126 7.7809 11.2225 7.7809C11.2324 7.7809 11.3145 7.83984 11.4049 7.91191ZM4.07597 12.1658C3.96807 12.2755 3.96122 12.3061 3.98597 12.5671C4.02592 12.9876 4.13247 13.2967 4.34823 13.6174L4.54149 13.9047L7.50297 13.9165L10.4645 13.9283V13.1459C10.4645 12.333 10.4277 12.141 10.2595 12.0754C10.2194 12.0598 8.83796 12.0469 7.18969 12.0469H4.1928L4.07597 12.1658ZM20.722 18.7898C21.0409 18.9131 21.1533 19.7931 20.9164 20.3127C20.7649 20.6452 20.4512 20.965 20.1226 21.1216C19.9025 21.2266 19.8079 21.2438 19.46 21.2422C19.1121 21.2406 19.0177 21.2224 18.7987 21.1146C18.2965 20.8673 17.9402 20.348 17.8803 19.7762C17.8551 19.5349 17.8634 19.4882 17.9478 19.3973C18.1312 19.1996 18.7336 18.935 19.2796 18.8122C19.6016 18.7398 20.5546 18.725 20.722 18.7898ZM8.96205 19.8717C8.89437 20.2962 8.52008 20.7814 8.09722 20.9927C7.90374 21.0894 7.80783 21.1055 7.42086 21.1059C7.0109 21.1064 6.94624 21.0943 6.70871 20.9718C6.29153 20.7567 5.97031 20.3437 5.87115 19.895L5.82976 19.7074H7.40901H8.98829L8.96205 19.8717Z" fill="#98A2B3"/>
</svg>
