<svg width="22" height="22" viewBox="0 0 22 22" fill="none" xmlns="http://www.w3.org/2000/svg">
<path fill-rule="evenodd" clip-rule="evenodd" d="M8.98031 1.11776C5.53564 1.60027 2.57148 3.99543 1.28346 7.33705C1.08058 7.86338 0.830075 8.77058 0.740559 9.30307C0.675868 9.68763 0.580994 10.8017 0.610341 10.8319C0.622483 10.8443 2.22561 9.22837 4.17284 7.24082C8.08795 3.24445 7.97656 3.343 8.57407 3.34876C8.91552 3.3521 9.23828 3.49538 9.54385 3.77921C9.64246 3.87084 10.2594 4.53712 10.9148 5.25984C11.5702 5.98257 12.1993 6.67224 12.3129 6.79248L12.5193 7.01106L14.1484 5.99298L15.7775 4.9749L15.3146 4.27476C15.0303 3.84482 14.822 3.47203 14.7749 3.30878C14.6795 2.9785 14.6762 2.55609 14.7673 2.33199L14.8364 2.16187L14.4109 1.95921C13.549 1.54867 12.5889 1.26135 11.5916 1.11559C10.9674 1.02436 9.63897 1.02547 8.98031 1.11776ZM15.841 2.60536C15.722 2.65742 15.6969 2.81399 15.7745 3.02015C15.7987 3.08449 16.1316 3.61268 16.5141 4.1939C16.8967 4.77511 17.1995 5.27789 17.1871 5.31119C17.1525 5.40393 12.4606 8.31753 12.3458 8.31753C12.2769 8.31753 11.6952 7.71438 10.4995 6.40312C9.53932 5.35021 8.7179 4.4746 8.67415 4.45731C8.4553 4.37099 8.82212 4.01589 3.1831 9.77334C0.754618 12.2529 0 13.0518 0 13.1433C0 13.3222 0.218014 13.481 0.377973 13.4185C0.446941 13.3915 2.03257 12.3278 3.90164 11.0545C5.77066 9.78133 7.36184 8.69815 7.43754 8.64746L7.57518 8.55532L7.74896 8.72701C7.84457 8.82147 8.77714 9.84906 9.82139 11.0105C10.8656 12.1719 11.7687 13.1348 11.8281 13.1501C11.8875 13.1655 11.9872 13.1499 12.0497 13.1155C12.1121 13.0812 13.2258 12.2762 14.5244 11.3266C18.4256 8.47416 18.9237 8.113 18.9954 8.08469C19.0421 8.06625 19.2852 8.38783 19.7564 9.09171C20.1371 9.66044 20.4836 10.1396 20.5264 10.1565C20.719 10.2325 20.8896 10.0004 20.9866 9.5305C21.2849 8.08429 22.022 3.97546 21.9995 3.88338C21.9837 3.81843 21.9181 3.7448 21.8539 3.71968C21.7106 3.66363 16.4812 2.61613 16.1728 2.58171C16.0512 2.56812 15.9019 2.57878 15.841 2.60536ZM15.7058 11.7827C14.0566 12.9898 12.608 14.0277 12.4867 14.0891C12.0632 14.3035 11.5532 14.2648 11.1444 13.9873C11.0418 13.9177 10.1728 12.9887 9.21321 11.923C8.25361 10.8573 7.44777 9.98536 7.4224 9.98536C7.37531 9.98536 1.30558 14.0936 1.18942 14.2041C1.13716 14.2538 1.15299 14.3365 1.2751 14.6526C2.7456 18.4585 6.31709 20.9526 10.2965 20.9526C15.1038 20.9526 19.1693 17.3566 19.8857 12.471C20.0182 11.5666 19.9679 11.2445 19.6199 10.772C19.5162 10.6312 19.291 10.3057 19.1195 10.0485C18.948 9.79139 18.7844 9.58256 18.7561 9.58448C18.7277 9.58635 17.3551 10.5755 15.7058 11.7827Z" fill="#98A2B3"/>
</svg>
